<mxfile host="app.diagrams.net" modified="2021-02-15T10:18:00.141Z" agent="5.0 (Windows NT 10.0; Win64; x64) AppleWebKit/537.36 (KHTML, like Gecko) Chrome/88.0.4324.150 Safari/537.36" etag="Ap11PE9onrbF2OYBauij" version="14.3.1" type="github">
  <diagram id="m3cKMJ7YTY9tZa0nteIg" name="Page-1">
    <mxGraphModel dx="1449" dy="643" grid="1" gridSize="10" guides="1" tooltips="1" connect="1" arrows="1" fold="1" page="1" pageScale="1" pageWidth="827" pageHeight="1169" math="0" shadow="0">
      <root>
        <mxCell id="0" />
        <mxCell id="1" parent="0" />
        <mxCell id="lSZsTIHQoJN5ihHew8vU-19" value="" style="rounded=0;whiteSpace=wrap;html=1;fillColor=#FFE5CF;rotation=-90;" parent="1" vertex="1">
          <mxGeometry x="317" y="318" width="122" height="244" as="geometry" />
        </mxCell>
        <mxCell id="lSZsTIHQoJN5ihHew8vU-17" value="" style="rounded=0;whiteSpace=wrap;html=1;fillColor=#FFE5CF;" parent="1" vertex="1">
          <mxGeometry x="134" y="230" width="122" height="244" as="geometry" />
        </mxCell>
        <mxCell id="lSZsTIHQoJN5ihHew8vU-21" value="" style="rounded=0;whiteSpace=wrap;html=1;fillColor=#FFE5CF;rotation=-90;" parent="1" vertex="1">
          <mxGeometry x="317" y="74" width="122" height="244" as="geometry" />
        </mxCell>
        <mxCell id="lSZsTIHQoJN5ihHew8vU-20" value="" style="rounded=0;whiteSpace=wrap;html=1;fillColor=#FFE5CF;rotation=-90;" parent="1" vertex="1">
          <mxGeometry x="317" y="196" width="122" height="244" as="geometry" />
        </mxCell>
        <mxCell id="lSZsTIHQoJN5ihHew8vU-1" value="" style="rounded=0;whiteSpace=wrap;html=1;fillColor=none;" parent="1" vertex="1">
          <mxGeometry x="70" y="170" width="430" height="310" as="geometry" />
        </mxCell>
        <mxCell id="lSZsTIHQoJN5ihHew8vU-2" value="" style="rounded=0;whiteSpace=wrap;html=1;fillColor=none;" parent="1" vertex="1">
          <mxGeometry x="340" y="150" width="90" height="20" as="geometry" />
        </mxCell>
        <mxCell id="lSZsTIHQoJN5ihHew8vU-3" value="427" style="text;html=1;strokeColor=none;fillColor=none;align=center;verticalAlign=middle;whiteSpace=wrap;rounded=0;" parent="1" vertex="1">
          <mxGeometry x="265" y="110" width="40" height="20" as="geometry" />
        </mxCell>
        <mxCell id="lSZsTIHQoJN5ihHew8vU-5" value="" style="rounded=0;whiteSpace=wrap;html=1;" parent="1" vertex="1">
          <mxGeometry x="400" y="480" width="90" height="20" as="geometry" />
        </mxCell>
        <mxCell id="lSZsTIHQoJN5ihHew8vU-6" value="344" style="text;html=1;strokeColor=none;fillColor=none;align=center;verticalAlign=middle;whiteSpace=wrap;rounded=0;" parent="1" vertex="1">
          <mxGeometry x="210" y="490" width="40" height="20" as="geometry" />
        </mxCell>
        <mxCell id="lSZsTIHQoJN5ihHew8vU-7" value="269" style="text;html=1;strokeColor=none;fillColor=none;align=center;verticalAlign=middle;whiteSpace=wrap;rounded=0;" parent="1" vertex="1">
          <mxGeometry x="190" y="140" width="40" height="20" as="geometry" />
        </mxCell>
        <mxCell id="lSZsTIHQoJN5ihHew8vU-8" value="72" style="text;html=1;strokeColor=none;fillColor=none;align=center;verticalAlign=middle;whiteSpace=wrap;rounded=0;" parent="1" vertex="1">
          <mxGeometry x="450" y="130" width="40" height="20" as="geometry" />
        </mxCell>
        <mxCell id="lSZsTIHQoJN5ihHew8vU-10" value="308" style="text;html=1;strokeColor=none;fillColor=none;align=center;verticalAlign=middle;whiteSpace=wrap;rounded=0;" parent="1" vertex="1">
          <mxGeometry x="530" y="315" width="40" height="20" as="geometry" />
        </mxCell>
        <mxCell id="lSZsTIHQoJN5ihHew8vU-11" value="" style="rounded=0;whiteSpace=wrap;html=1;" parent="1" vertex="1">
          <mxGeometry x="70" y="250" width="70" height="160" as="geometry" />
        </mxCell>
        <mxCell id="lSZsTIHQoJN5ihHew8vU-13" value="" style="rounded=0;whiteSpace=wrap;html=1;fillColor=#E6FFCC;" parent="1" vertex="1">
          <mxGeometry x="70" y="170" width="260" height="60" as="geometry" />
        </mxCell>
        <mxCell id="lSZsTIHQoJN5ihHew8vU-14" value="" style="rounded=0;whiteSpace=wrap;html=1;fillColor=#E6FFCC;" parent="1" vertex="1">
          <mxGeometry x="70" y="420" width="310" height="60" as="geometry" />
        </mxCell>
        <mxCell id="lSZsTIHQoJN5ihHew8vU-15" value="" style="rounded=0;whiteSpace=wrap;html=1;fillColor=#E6FFCC;" parent="1" vertex="1">
          <mxGeometry x="70" y="410" width="60" height="10" as="geometry" />
        </mxCell>
        <mxCell id="lSZsTIHQoJN5ihHew8vU-16" value="" style="rounded=0;whiteSpace=wrap;html=1;fillColor=#E6FFCC;" parent="1" vertex="1">
          <mxGeometry x="70" y="230" width="60" height="20" as="geometry" />
        </mxCell>
        <mxCell id="lSZsTIHQoJN5ihHew8vU-22" value="&lt;h1&gt;Kitchen&lt;/h1&gt;&lt;p&gt;4 boards of ply [8*4]&lt;/p&gt;" style="text;html=1;strokeColor=none;fillColor=none;spacing=5;spacingTop=-20;whiteSpace=wrap;overflow=hidden;rounded=0;" parent="1" vertex="1">
          <mxGeometry x="40" y="20" width="190" height="120" as="geometry" />
        </mxCell>
        <mxCell id="lSZsTIHQoJN5ihHew8vU-23" value="" style="rounded=0;whiteSpace=wrap;html=1;fillColor=#FFE5CF;rotation=-90;" parent="1" vertex="1">
          <mxGeometry x="307" y="878" width="122" height="244" as="geometry" />
        </mxCell>
        <mxCell id="lSZsTIHQoJN5ihHew8vU-24" value="" style="rounded=0;whiteSpace=wrap;html=1;fillColor=#FFE5CF;" parent="1" vertex="1">
          <mxGeometry x="124" y="790" width="122" height="244" as="geometry" />
        </mxCell>
        <mxCell id="lSZsTIHQoJN5ihHew8vU-25" value="" style="rounded=0;whiteSpace=wrap;html=1;fillColor=#FFE5CF;rotation=-90;" parent="1" vertex="1">
          <mxGeometry x="307" y="634" width="122" height="244" as="geometry" />
        </mxCell>
        <mxCell id="lSZsTIHQoJN5ihHew8vU-26" value="" style="rounded=0;whiteSpace=wrap;html=1;fillColor=#FFE5CF;rotation=-90;" parent="1" vertex="1">
          <mxGeometry x="307" y="756" width="122" height="244" as="geometry" />
        </mxCell>
        <mxCell id="lSZsTIHQoJN5ihHew8vU-27" value="" style="rounded=0;whiteSpace=wrap;html=1;fillColor=none;" parent="1" vertex="1">
          <mxGeometry x="60" y="730" width="430" height="310" as="geometry" />
        </mxCell>
        <mxCell id="lSZsTIHQoJN5ihHew8vU-28" value="" style="rounded=0;whiteSpace=wrap;html=1;fillColor=none;" parent="1" vertex="1">
          <mxGeometry x="330" y="710" width="90" height="20" as="geometry" />
        </mxCell>
        <mxCell id="lSZsTIHQoJN5ihHew8vU-29" value="427" style="text;html=1;strokeColor=none;fillColor=none;align=center;verticalAlign=middle;whiteSpace=wrap;rounded=0;" parent="1" vertex="1">
          <mxGeometry x="255" y="670" width="40" height="20" as="geometry" />
        </mxCell>
        <mxCell id="lSZsTIHQoJN5ihHew8vU-30" value="" style="rounded=0;whiteSpace=wrap;html=1;" parent="1" vertex="1">
          <mxGeometry x="390" y="1040" width="90" height="20" as="geometry" />
        </mxCell>
        <mxCell id="lSZsTIHQoJN5ihHew8vU-31" value="344" style="text;html=1;strokeColor=none;fillColor=none;align=center;verticalAlign=middle;whiteSpace=wrap;rounded=0;" parent="1" vertex="1">
          <mxGeometry x="200" y="1050" width="40" height="20" as="geometry" />
        </mxCell>
        <mxCell id="lSZsTIHQoJN5ihHew8vU-32" value="269" style="text;html=1;strokeColor=none;fillColor=none;align=center;verticalAlign=middle;whiteSpace=wrap;rounded=0;" parent="1" vertex="1">
          <mxGeometry x="180" y="700" width="40" height="20" as="geometry" />
        </mxCell>
        <mxCell id="lSZsTIHQoJN5ihHew8vU-33" value="72" style="text;html=1;strokeColor=none;fillColor=none;align=center;verticalAlign=middle;whiteSpace=wrap;rounded=0;" parent="1" vertex="1">
          <mxGeometry x="440" y="690" width="40" height="20" as="geometry" />
        </mxCell>
        <mxCell id="lSZsTIHQoJN5ihHew8vU-34" value="308" style="text;html=1;strokeColor=none;fillColor=none;align=center;verticalAlign=middle;whiteSpace=wrap;rounded=0;" parent="1" vertex="1">
          <mxGeometry x="520" y="875" width="40" height="20" as="geometry" />
        </mxCell>
        <mxCell id="lSZsTIHQoJN5ihHew8vU-35" value="" style="rounded=0;whiteSpace=wrap;html=1;" parent="1" vertex="1">
          <mxGeometry x="60" y="810" width="70" height="160" as="geometry" />
        </mxCell>
        <mxCell id="lSZsTIHQoJN5ihHew8vU-36" value="" style="rounded=0;whiteSpace=wrap;html=1;fillColor=#E6FFCC;" parent="1" vertex="1">
          <mxGeometry x="60" y="730" width="260" height="60" as="geometry" />
        </mxCell>
        <mxCell id="lSZsTIHQoJN5ihHew8vU-37" value="" style="rounded=0;whiteSpace=wrap;html=1;fillColor=#E6FFCC;" parent="1" vertex="1">
          <mxGeometry x="60" y="980" width="310" height="60" as="geometry" />
        </mxCell>
        <mxCell id="lSZsTIHQoJN5ihHew8vU-38" value="" style="rounded=0;whiteSpace=wrap;html=1;fillColor=#E6FFCC;" parent="1" vertex="1">
          <mxGeometry x="60" y="970" width="60" height="10" as="geometry" />
        </mxCell>
        <mxCell id="lSZsTIHQoJN5ihHew8vU-39" value="" style="rounded=0;whiteSpace=wrap;html=1;fillColor=#E6FFCC;" parent="1" vertex="1">
          <mxGeometry x="60" y="790" width="60" height="20" as="geometry" />
        </mxCell>
        <mxCell id="lSZsTIHQoJN5ihHew8vU-40" value="&lt;h1&gt;Lounge&lt;/h1&gt;&lt;p&gt;? boards of ply [8*4]&lt;/p&gt;" style="text;html=1;strokeColor=none;fillColor=none;spacing=5;spacingTop=-20;whiteSpace=wrap;overflow=hidden;rounded=0;" parent="1" vertex="1">
          <mxGeometry x="30" y="580" width="190" height="120" as="geometry" />
        </mxCell>
      </root>
    </mxGraphModel>
  </diagram>
</mxfile>
